<svg xmlns="http://www.w3.org/2000/svg" xmlns:xlink="http://www.w3.org/1999/xlink" width="500" zoomAndPan="magnify" viewBox="0 0 375 374.999991" height="500" preserveAspectRatio="xMidYMid meet" version="1.0"><defs><clipPath id="3e007da4be"><path d="M 186.75 42.6875 L 321.75 42.6875 L 321.75 275.1875 L 186.75 275.1875 Z M 186.75 42.6875 " clip-rule="nonzero"/></clipPath><clipPath id="32b59ae26f"><path d="M 55.289062 99.808594 L 190.285156 99.808594 L 190.285156 332.308594 L 55.289062 332.308594 Z M 55.289062 99.808594 " clip-rule="nonzero"/></clipPath><clipPath id="ce39894481"><path d="M 186.75 99.808594 L 259.5 99.808594 L 259.5 162.808594 L 186.75 162.808594 Z M 186.75 99.808594 " clip-rule="nonzero"/></clipPath><clipPath id="0ec35057e7"><path d="M 116.980469 212.292969 L 189.730469 212.292969 L 189.730469 275.292969 L 116.980469 275.292969 Z M 116.980469 212.292969 " clip-rule="nonzero"/></clipPath></defs><g clip-path="url(#3e007da4be)"><path stroke-linecap="butt" transform="matrix(0.751893, 0, 0, 0.75, 186.750784, 42.686928)" fill="none" stroke-linejoin="miter" d="M -0.00104302 0.000763204 L 179.545856 0.000763204 L 179.545856 310.000784 L -0.00104302 310.000784 L -0.00104302 0.000763204 " stroke="#4361ee" stroke-width="8" stroke-opacity="1" stroke-miterlimit="4"/></g><g clip-path="url(#32b59ae26f)"><path stroke-linecap="butt" transform="matrix(0.751893, 0, 0, 0.75, 55.287262, 99.808808)" fill="none" stroke-linejoin="miter" d="M 0.002394 -0.000285461 L 179.544097 -0.000285461 L 179.544097 309.999735 L 0.002394 309.999735 L 0.002394 -0.000285461 " stroke="#4361ee" stroke-width="8" stroke-opacity="1" stroke-miterlimit="4"/></g><g clip-path="url(#ce39894481)"><path stroke-linecap="butt" transform="matrix(0.747832, 0, 0, 0.751258, 186.750314, 99.808808)" fill="none" stroke-linejoin="miter" d="M -0.000419662 -0.000284983 L 97.280843 -0.000284983 L 97.280843 83.8591 L -0.000419662 83.8591 L -0.000419662 -0.000284983 " stroke="#4361ee" stroke-width="8" stroke-opacity="1" stroke-miterlimit="4"/></g><g clip-path="url(#0ec35057e7)"><path stroke-linecap="butt" transform="matrix(0.747832, 0, 0, 0.751258, 116.981927, 212.291808)" fill="none" stroke-linejoin="miter" d="M -0.00195026 0.00154446 L 97.279313 0.00154446 L 97.279313 83.860929 L -0.00195026 83.860929 L -0.00195026 0.00154446 " stroke="#4361ee" stroke-width="8" stroke-opacity="1" stroke-miterlimit="4"/></g></svg>